<?xml version="1.0" standalone="no"?>
<!DOCTYPE svg PUBLIC "-//W3C//DTD SVG 20010904//EN"
 "http://www.w3.org/TR/2001/REC-SVG-20010904/DTD/svg10.dtd">
<svg version="1.0" xmlns="http://www.w3.org/2000/svg"
 width="1000.000000pt" height="282.000000pt" viewBox="0 0 1000.000000 282.000000"
 preserveAspectRatio="xMidYMid meet">
<metadata>
Created by potrace 1.16, written by Peter Selinger 2001-2019
</metadata>
<g transform="translate(0.000000,282.000000) scale(0.100000,-0.100000)"
fill="#000000" stroke="none">
<path d="M412 2803 c-41 -20 -87 -65 -108 -105 -14 -26 -304 -1630 -304 -1679
0 -18 9 -19 184 -19 l184 0 6 27 c3 16 31 172 61 348 31 176 60 344 66 373
l10 52 263 0 c296 0 335 6 403 64 50 44 70 85 87 181 l13 75 -355 0 -354 0 5
23 c3 12 18 97 33 189 l28 168 475 2 475 3 27 158 26 157 -596 0 c-533 0 -600
-2 -629 -17z"/>
<path d="M1812 2697 c-12 -68 -22 -131 -22 -140 0 -15 18 -17 179 -17 204 0
183 -10 200 100 14 86 1 134 -42 160 -27 17 -51 20 -163 20 l-131 0 -21 -123z"/>
<path d="M2340 2757 c0 -2 -48 -278 -106 -613 -134 -765 -140 -862 -69 -1004
27 -53 105 -129 161 -158 146 -74 433 -88 621 -31 183 56 329 178 415 344 82
161 128 363 129 570 1 241 -64 380 -213 456 -194 99 -447 65 -612 -83 -59 -52
-59 -52 -54 -23 3 17 21 117 39 224 30 178 31 198 18 234 -25 70 -51 81 -200
86 -71 1 -129 1 -129 -2z m622 -717 c49 -14 93 -52 121 -104 19 -36 22 -56 22
-166 -1 -205 -56 -363 -159 -458 -64 -58 -125 -82 -209 -82 -80 0 -130 17
-171 56 -54 52 -70 116 -63 248 12 257 128 455 297 507 37 11 120 10 162 -1z"/>
<path d="M1642 1723 c-67 -384 -123 -704 -122 -710 0 -10 43 -13 179 -13 l179
0 6 27 c33 158 216 1237 216 1274 0 40 -5 55 -29 81 l-29 33 -139 3 -138 3
-123 -698z"/>
<path d="M4193 2406 c-308 -59 -494 -238 -592 -571 -51 -173 -66 -404 -36
-534 55 -232 237 -353 530 -353 310 0 515 120 653 385 l42 82 -140 3 c-78 1
-157 -2 -178 -7 -20 -6 -62 -29 -92 -52 -81 -61 -133 -81 -225 -86 -70 -4 -85
-2 -125 19 -65 35 -102 109 -104 210 l-1 73 456 3 457 2 18 93 c25 129 25 341
0 422 -50 164 -144 256 -307 301 -77 21 -268 27 -356 10z m158 -297 c95 -20
149 -102 149 -223 l0 -46 -260 0 c-143 0 -260 2 -260 5 0 2 11 28 24 57 50
112 120 179 214 204 60 16 70 16 133 3z"/>
<path d="M6494 2405 c-84 -19 -155 -47 -232 -94 -277 -165 -432 -482 -420
-861 2 -71 7 -132 11 -136 4 -4 37 22 74 57 173 164 399 311 753 488 169 84
532 243 584 257 41 10 30 24 -18 24 -41 0 -46 3 -69 43 -34 58 -122 139 -186
172 -123 62 -341 84 -497 50z m216 -260 c25 -3 70 -19 99 -37 l55 -31 -80 -23
c-109 -31 -325 -107 -457 -160 -60 -24 -111 -44 -114 -44 -15 0 70 133 114
177 79 81 227 140 318 127 11 -2 40 -6 65 -9z"/>
<path d="M5647 2359 c-152 -16 -273 -57 -382 -130 -88 -59 -150 -127 -210
-227 -70 -118 -99 -225 -175 -650 -38 -215 -70 -395 -70 -401 0 -8 59 -11 185
-11 102 0 185 3 185 8 0 18 132 751 141 787 29 107 101 193 189 226 38 15 88
23 163 26 59 3 107 9 107 13 0 4 13 79 30 166 41 217 43 204 -27 203 -32 -1
-93 -5 -136 -10z"/>
<path d="M7915 2349 c-272 -39 -460 -209 -535 -481 -17 -63 -170 -905 -170
-937 0 -8 55 -11 185 -11 109 0 185 4 185 9 0 36 163 915 176 950 39 104 124
156 254 156 133 -1 200 -55 200 -165 0 -31 -29 -220 -65 -418 -36 -199 -65
-380 -65 -402 0 -102 48 -130 219 -130 117 0 121 1 126 23 3 12 37 204 77 427
66 372 72 416 72 545 1 123 -2 147 -22 197 -50 123 -162 206 -318 233 -87 16
-226 17 -319 4z"/>
<path d="M9362 2309 c-332 -37 -552 -250 -646 -625 -79 -314 -47 -561 90 -698
96 -97 227 -140 424 -139 302 0 508 121 640 374 22 42 40 80 40 83 0 11 -321
6 -342 -5 -11 -6 -41 -27 -67 -47 -90 -69 -193 -99 -283 -82 -106 20 -159 92
-166 228 l-5 82 460 0 460 0 17 104 c20 133 21 323 1 399 -44 169 -151 274
-317 311 -88 20 -208 26 -306 15z m151 -313 c71 -29 117 -117 117 -221 l0 -35
-261 0 -260 0 7 23 c28 91 102 184 176 221 60 30 165 36 221 12z"/>
<path d="M7075 1984 c-166 -70 -355 -162 -355 -173 0 -5 37 0 83 10 118 27
145 25 153 -7 11 -42 -3 -192 -25 -278 -63 -241 -206 -387 -410 -419 -127 -19
-250 28 -316 121 l-30 43 30 55 c38 71 136 193 209 263 32 29 55 55 53 57 -6
6 -76 -20 -148 -56 -126 -64 -389 -263 -442 -335 -16 -22 -16 -27 -1 -71 23
-69 88 -167 141 -214 98 -86 219 -123 398 -123 140 0 222 13 324 54 303 121
501 429 526 820 8 120 -24 311 -52 308 -5 0 -66 -25 -138 -55z"/>
<path d="M6010 739 c-43 -17 -78 -60 -91 -110 -12 -48 -14 -49 -51 -49 -31 0
-38 -4 -38 -19 0 -11 -3 -26 -6 -35 -5 -13 1 -16 30 -16 20 0 36 -4 36 -10 0
-5 -16 -84 -35 -176 -19 -91 -35 -168 -35 -170 0 -2 20 -4 44 -4 l43 0 32 163
c18 89 34 170 37 180 4 14 17 17 65 17 40 0 59 4 59 13 0 6 3 22 6 35 6 21 4
22 -56 22 -59 0 -61 1 -55 23 18 59 64 89 105 67 28 -15 36 -13 48 15 17 37
15 42 -19 54 -39 13 -85 13 -119 0z"/>
<path d="M193 447 c-95 -145 -175 -272 -179 -281 -5 -13 1 -16 39 -16 46 0 46
0 91 70 l46 71 142 -3 142 -3 14 -67 15 -68 43 0 c36 0 44 3 43 18 0 9 -31
134 -67 277 l-67 260 -45 3 -45 3 -172 -264z m257 -74 c0 -10 -27 -13 -105
-13 -58 0 -105 2 -105 5 0 3 35 60 77 127 l77 121 28 -114 c15 -63 27 -120 28
-126z"/>
<path d="M7397 653 c-3 -10 -8 -30 -11 -45 -5 -24 -11 -28 -40 -28 -26 0 -35
-5 -40 -22 -11 -42 -7 -48 27 -48 l34 0 -25 -128 c-26 -132 -25 -163 6 -202
23 -28 115 -40 162 -20 25 11 29 16 24 39 -9 38 -16 42 -52 29 -37 -14 -65 -3
-71 28 -2 10 7 72 20 136 l23 117 60 3 c59 3 60 4 67 36 l6 32 -58 0 -59 0 7
45 6 45 -41 0 c-30 0 -42 -4 -45 -17z"/>
<path d="M9804 625 c-6 -44 -7 -45 -45 -45 -32 0 -39 -4 -39 -19 0 -11 -3 -26
-6 -35 -5 -13 1 -16 30 -16 20 0 36 -2 36 -4 0 -2 -11 -58 -25 -125 -28 -137
-25 -171 17 -206 33 -28 107 -34 153 -13 22 10 25 16 19 42 -8 40 -6 38 -40
26 -38 -15 -72 -5 -79 23 -3 12 5 74 18 137 l23 115 62 3 c40 2 62 7 62 15 0
7 3 22 6 35 6 21 4 22 -56 22 -54 0 -61 2 -57 18 20 74 21 72 -27 72 l-45 0
-7 -45z"/>
<path d="M1026 383 c-21 -109 -40 -206 -43 -215 -4 -15 3 -18 40 -18 l44 0 22
113 c29 149 36 169 71 202 24 23 41 30 89 33 50 4 62 1 80 -17 27 -27 26 -51
-4 -201 -14 -68 -25 -124 -25 -126 0 -2 19 -4 43 -4 l43 0 28 145 c29 150 29
185 -1 231 -35 55 -149 71 -231 34 -43 -19 -43 -19 -37 0 6 18 2 20 -37 20
l-44 0 -38 -197z"/>
<path d="M1715 562 c-88 -42 -137 -124 -137 -227 0 -63 15 -107 49 -137 59
-53 183 -64 271 -23 56 26 61 37 34 73 l-18 24 -35 -20 c-48 -28 -91 -35 -138
-22 -45 12 -81 50 -81 86 l0 24 170 0 170 0 0 60 c0 72 -17 109 -67 147 -48
37 -156 44 -218 15z m150 -66 c36 -15 55 -42 55 -75 0 -20 -5 -21 -125 -21
-70 0 -125 4 -125 9 0 18 54 74 85 87 39 17 68 17 110 0z"/>
<path d="M2120 571 c0 -12 70 -382 76 -403 4 -13 16 -18 44 -18 l39 0 82 145
c46 80 86 145 89 145 4 0 20 -65 36 -145 l28 -145 41 0 41 0 117 209 c64 115
117 212 117 215 0 3 -18 6 -40 6 l-39 0 -88 -155 c-52 -92 -90 -150 -94 -143
-3 7 -14 56 -23 108 -36 199 -33 192 -74 188 -36 -3 -38 -6 -126 -161 l-91
-158 -29 161 -29 160 -39 0 c-21 0 -38 -4 -38 -9z"/>
<path d="M3152 568 c3 -7 22 -104 43 -215 l39 -203 40 0 41 0 85 149 c46 82
86 148 87 147 2 -1 14 -58 28 -127 14 -68 27 -134 30 -147 5 -20 11 -23 47
-20 l42 3 79 140 c43 77 96 173 118 213 l40 72 -43 0 -43 0 -90 -161 -90 -160
-29 161 -30 160 -37 0 -37 0 -88 -155 c-48 -85 -90 -153 -92 -150 -2 2 -15 62
-28 132 -35 189 -28 173 -75 173 -29 0 -40 -4 -37 -12z"/>
<path d="M4019 552 c-155 -81 -169 -327 -22 -388 48 -20 141 -18 186 5 37 19
38 19 32 0 -6 -17 -1 -19 37 -19 l44 0 39 198 c21 108 40 205 43 215 4 14 -3
17 -42 17 -38 0 -46 -3 -46 -18 0 -30 -9 -31 -53 -6 -61 35 -147 33 -218 -4z
m184 -64 c48 -25 65 -114 33 -176 -37 -72 -121 -107 -189 -78 -111 46 -75 227
52 267 28 8 75 3 104 -13z"/>
<path d="M4500 568 c0 -7 22 -102 49 -211 l48 -197 -24 -33 c-43 -59 -86 -73
-130 -42 -20 14 -23 13 -42 -11 -26 -33 -26 -39 1 -58 14 -10 44 -16 83 -16
65 0 98 15 134 62 25 31 331 506 331 513 0 3 -19 5 -43 5 l-43 0 -102 -162
c-56 -89 -102 -160 -103 -158 0 3 -17 75 -38 160 l-38 155 -42 3 c-29 2 -41
-1 -41 -10z"/>
<path d="M5414 569 c-46 -13 -119 -83 -139 -131 -34 -85 -20 -193 32 -240 49
-45 153 -61 234 -37 93 28 159 125 159 234 0 117 -73 186 -194 184 -34 0 -75
-5 -92 -10z m117 -69 c95 -26 114 -138 38 -225 -39 -44 -93 -60 -149 -45 -124
33 -95 230 39 270 35 11 32 11 72 0z"/>
<path d="M6500 577 c0 -2 -18 -93 -40 -202 -22 -109 -40 -205 -40 -212 0 -9
13 -13 40 -13 33 0 41 4 45 23 16 67 75 373 75 389 0 14 -8 18 -40 18 -22 0
-40 -1 -40 -3z"/>
<path d="M6776 568 c-9 -29 -76 -384 -76 -400 0 -14 9 -18 40 -18 22 0 40 2
40 4 0 27 54 254 65 276 23 44 71 70 128 70 58 0 87 -24 87 -74 0 -28 -24
-165 -45 -254 -5 -20 -2 -22 40 -22 25 0 45 2 45 4 0 2 11 58 25 126 14 68 25
141 25 164 0 53 -31 103 -75 122 -48 20 -132 17 -181 -5 -41 -19 -41 -19 -37
0 5 16 0 19 -36 19 -25 0 -43 -5 -45 -12z"/>
<path d="M7795 562 c-50 -24 -109 -88 -125 -137 -7 -20 -10 -67 -8 -104 4 -81
28 -120 93 -151 59 -29 169 -26 230 6 46 24 53 42 28 73 l-19 23 -34 -20 c-78
-45 -166 -36 -200 21 -41 66 -39 67 149 67 164 0 170 1 176 21 18 57 -19 150
-78 193 -40 29 -157 34 -212 8z m156 -68 c27 -14 67 -79 56 -90 -2 -3 -61 -3
-131 -2 l-127 3 23 35 c42 63 118 86 179 54z"/>
<path d="M8275 558 c-16 -68 -75 -374 -75 -390 0 -14 8 -18 39 -18 l40 0 11
57 c24 122 50 214 67 238 20 27 80 55 117 55 24 0 36 21 36 64 0 17 -5 18 -52
13 -29 -4 -65 -16 -81 -27 l-28 -21 7 25 c6 25 4 26 -35 26 -34 0 -41 -4 -46
-22z"/>
<path d="M8611 373 c-22 -115 -41 -211 -41 -215 0 -5 19 -8 43 -8 l43 0 19 98
c28 151 41 186 81 222 32 28 41 31 91 28 48 -3 59 -7 77 -31 l20 -27 -23 -118
c-12 -64 -25 -130 -28 -145 -6 -28 -5 -28 38 -25 l44 3 27 140 c35 180 26 235
-48 270 -45 21 -143 17 -191 -7 -32 -16 -33 -16 -33 3 0 15 -7 19 -39 19 l-38
0 -42 -207z"/>
<path d="M9291 554 c-63 -32 -104 -84 -121 -155 -35 -145 48 -249 200 -249 43
0 78 7 105 20 68 32 69 33 51 69 -9 17 -18 31 -21 31 -2 0 -19 -9 -37 -19 -47
-27 -90 -34 -137 -21 -45 12 -81 50 -81 86 l0 24 171 0 171 0 -4 68 c-2 51 -9
76 -27 101 -52 73 -173 93 -270 45z m157 -55 c34 -12 62 -47 62 -79 0 -19 -6
-20 -125 -20 -69 0 -125 2 -125 5 0 23 37 68 68 84 42 23 76 26 120 10z"/>
</g>
</svg>
